%TF.GenerationSoftware,Altium Limited,Altium Designer,25.0.2 (28)*%
G04 Layer_Physical_Order=1*
G04 Layer_Color=8978557*
%FSLAX45Y45*%
%MOMM*%
%TF.SameCoordinates,E57AED57-440D-4D4F-8B67-6D4582B64FA8*%
%TF.FilePolarity,Positive*%
%TF.FileFunction,Copper,L1,Top,Signal*%
%TF.Part,Single*%
G01*
G75*
%TA.AperFunction,SMDPad,CuDef*%
%ADD10R,1.40000X0.95000*%
%ADD11R,1.00000X0.66000*%
%ADD12R,1.70000X0.70000*%
%ADD13R,1.70000X0.60000*%
%ADD14R,2.70000X1.00000*%
%TA.AperFunction,Conductor*%
%ADD15C,0.25400*%
%TA.AperFunction,NonConductor*%
%ADD16C,0.30000*%
%ADD17C,0.25400*%
%TA.AperFunction,ViaPad*%
%ADD18C,0.50000*%
%ADD19C,0.40000*%
%ADD20C,0.71120*%
D10*
X1850000Y515000D02*
D03*
Y700000D02*
D03*
X1100000Y515000D02*
D03*
Y700000D02*
D03*
D11*
X1600000Y700000D02*
D03*
Y510000D02*
D03*
X1340000D02*
D03*
Y605000D02*
D03*
Y700000D02*
D03*
D12*
X2300000Y675000D02*
D03*
D13*
Y550000D02*
D03*
X650000Y575000D02*
D03*
Y700000D02*
D03*
D14*
X2620000Y860000D02*
D03*
Y365000D02*
D03*
X330000Y390000D02*
D03*
Y885000D02*
D03*
D15*
X1850000Y357500D02*
Y500000D01*
X700000Y575000D02*
X850000D01*
X1250000Y605000D02*
X1350000D01*
X2300000Y675000D02*
X2500000D01*
X1100000Y400000D02*
Y515000D01*
X1370300Y679700D02*
X1412182D01*
X1370300Y530300D02*
X1412182D01*
X1438100Y556218D01*
X1350000Y510000D02*
X1370300Y530300D01*
X1438100Y556218D02*
Y653782D01*
X1412182Y679700D02*
X1438100Y653782D01*
X1350000Y700000D02*
X1370300Y679700D01*
X1100000Y700000D02*
X1350000D01*
X650000D02*
X1100000D01*
D16*
X1600000Y700000D02*
X1800000D01*
D17*
X2150000Y550000D02*
X2250000D01*
X1850000Y700000D02*
X2150000Y550000D01*
D18*
X1850000Y357500D02*
D03*
X2500000Y675000D02*
D03*
X1100000Y400000D02*
D03*
D19*
X850000Y575000D02*
D03*
D20*
X1250000Y605000D02*
D03*
%TF.MD5,f0b92636c4167b91f68c4e04a0a77300*%
M02*
