%TF.GenerationSoftware,Altium Limited,Altium Designer,25.0.2 (28)*%
G04 Layer_Color=8388736*
%FSLAX45Y45*%
%MOMM*%
%TF.SameCoordinates,E57AED57-440D-4D4F-8B67-6D4582B64FA8*%
%TF.FilePolarity,Negative*%
%TF.FileFunction,Soldermask,Top*%
%TF.Part,Single*%
G01*
G75*
%TA.AperFunction,SMDPad,CuDef*%
%ADD10R,1.40000X0.95000*%
%ADD11R,1.00000X0.66000*%
%ADD12R,1.70000X0.70000*%
%ADD13R,1.70000X0.60000*%
%ADD14R,2.70000X1.00000*%
%TA.AperFunction,ViaPad*%
%ADD23C,0.70320*%
%ADD24C,0.60320*%
%ADD25C,0.91440*%
D10*
X1850000Y515000D02*
D03*
Y700000D02*
D03*
X1100000Y515000D02*
D03*
Y700000D02*
D03*
D11*
X1600000Y700000D02*
D03*
Y510000D02*
D03*
X1340000D02*
D03*
Y605000D02*
D03*
Y700000D02*
D03*
D12*
X2300000Y675000D02*
D03*
D13*
Y550000D02*
D03*
X650000Y575000D02*
D03*
Y700000D02*
D03*
D14*
X2620000Y860000D02*
D03*
Y365000D02*
D03*
X330000Y390000D02*
D03*
Y885000D02*
D03*
D23*
X1850000Y357500D02*
D03*
X2500000Y675000D02*
D03*
X1100000Y400000D02*
D03*
D24*
X850000Y575000D02*
D03*
D25*
X1250000Y605000D02*
D03*
%TF.MD5,f9bc92f4cb3e7f90969002c4ddf832a0*%
M02*
